<svg width="410" height="50" viewBox="0 0 410 50" fill="none" xmlns="http://www.w3.org/2000/svg">
<g clip-path="url(#clip0_21_1252)">
<rect x="60" width="50" height="50" fill="white"/>
<path d="M83.8815 31.1001V22.0701C83.7789 22.1261 83.6622 22.1821 83.5315 22.2381C83.4009 22.2941 83.2609 22.3548 83.1115 22.4201C82.9715 22.4761 82.8315 22.5321 82.6915 22.5881C82.5609 22.6441 82.4395 22.7001 82.3275 22.7561V21.0201C82.4302 20.9641 82.5749 20.8894 82.7615 20.7961C82.9482 20.6934 83.1489 20.5814 83.3635 20.4601C83.5782 20.3388 83.7789 20.2174 83.9655 20.0961C84.1522 19.9654 84.2922 19.8534 84.3855 19.7601H86.2195V31.1001H83.8815Z" fill="#222222"/>
</g>
<g clip-path="url(#clip1_21_1252)">
<rect width="50" height="50" fill="white"/>
<path d="M22.2278 25.0001L25.3258 21.8576C25.5213 21.6606 25.5213 21.3406 25.3258 21.1436C25.1303 20.9466 24.8138 20.9466 24.6188 21.1436L21.1693 24.6431C20.9818 24.8326 20.9808 25.1671 21.1693 25.3576L24.6193 28.8571C24.8143 29.0541 25.1313 29.0541 25.3263 28.8571C25.5218 28.6601 25.5218 28.3401 25.3263 28.1431L22.2278 25.0001Z" fill="#121313"/>
<path d="M25.7278 25.0001L28.8258 21.8576C29.0213 21.6606 29.0213 21.3406 28.8258 21.1436C28.6303 20.9466 28.3138 20.9466 28.1188 21.1436L24.6693 24.6431C24.4818 24.8326 24.4808 25.1671 24.6693 25.3576L28.1188 28.8571C28.3143 29.0541 28.6308 29.0541 28.8258 28.8571C29.0213 28.6601 29.0213 28.3401 28.8258 28.1431L25.7278 25.0001Z" fill="#121313"/>
</g>
<g clip-path="url(#clip2_21_1252)">
<rect x="360" width="50" height="50" fill="white"/>
<path d="M387.772 25.0001L384.674 21.8576C384.479 21.6606 384.479 21.3406 384.674 21.1436C384.87 20.9466 385.186 20.9466 385.381 21.1436L388.831 24.6431C389.018 24.8326 389.019 25.1671 388.831 25.3576L385.381 28.8571C385.186 29.0541 384.869 29.0541 384.674 28.8571C384.478 28.6601 384.478 28.3401 384.674 28.1431L387.772 25.0001Z" fill="#121313"/>
<path d="M384.272 25.0001L381.174 21.8576C380.979 21.6606 380.979 21.3406 381.174 21.1436C381.37 20.9466 381.686 20.9466 381.881 21.1436L385.331 24.6431C385.518 24.8326 385.519 25.1671 385.331 25.3576L381.881 28.8571C381.686 29.0541 381.369 29.0541 381.174 28.8571C380.979 28.6601 380.979 28.3401 381.174 28.1431L384.272 25.0001Z" fill="#121313"/>
</g>
<g clip-path="url(#clip3_21_1252)">
<rect x="180" width="50" height="50" fill="white"/>
<path d="M204.799 31.3101C204.005 31.3101 203.38 31.1608 202.923 30.8621C202.475 30.5634 202.153 30.1481 201.957 29.6161C201.77 29.0748 201.677 28.4541 201.677 27.7541V27.3481H204.015C204.015 27.3574 204.015 27.4088 204.015 27.5021C204.015 27.5954 204.015 27.6794 204.015 27.7541C204.015 28.1274 204.038 28.4308 204.085 28.6641C204.131 28.8974 204.215 29.0701 204.337 29.1821C204.458 29.2848 204.626 29.3361 204.841 29.3361C205.055 29.3361 205.214 29.2801 205.317 29.1681C205.429 29.0561 205.503 28.8881 205.541 28.6641C205.578 28.4401 205.597 28.1601 205.597 27.8241C205.597 27.2641 205.517 26.8394 205.359 26.5501C205.209 26.2514 204.892 26.0974 204.407 26.0881C204.397 26.0881 204.346 26.0881 204.253 26.0881C204.159 26.0881 204.066 26.0881 203.973 26.0881V24.4781C204.038 24.4781 204.103 24.4781 204.169 24.4781C204.234 24.4781 204.295 24.4781 204.351 24.4781C204.845 24.4781 205.177 24.3428 205.345 24.0721C205.513 23.8014 205.597 23.3814 205.597 22.8121C205.597 22.3734 205.536 22.0374 205.415 21.8041C205.303 21.5708 205.088 21.4541 204.771 21.4541C204.463 21.4541 204.257 21.5848 204.155 21.8461C204.061 22.1074 204.015 22.4434 204.015 22.8541C204.015 22.9474 204.015 23.0454 204.015 23.1481C204.015 23.2414 204.015 23.3394 204.015 23.4421H201.677V22.7561C201.677 22.0748 201.798 21.5008 202.041 21.0341C202.293 20.5581 202.647 20.1988 203.105 19.9561C203.571 19.7134 204.127 19.5921 204.771 19.5921C205.424 19.5921 205.984 19.7088 206.451 19.9421C206.917 20.1754 207.277 20.5208 207.529 20.9781C207.781 21.4261 207.907 21.9861 207.907 22.6581C207.907 23.3208 207.771 23.8761 207.501 24.3241C207.23 24.7721 206.903 25.0474 206.521 25.1501C206.782 25.2434 207.015 25.3928 207.221 25.5981C207.435 25.8034 207.603 26.0834 207.725 26.4381C207.846 26.7834 207.907 27.2268 207.907 27.7681C207.907 28.4588 207.804 29.0701 207.599 29.6021C207.403 30.1341 207.076 30.5541 206.619 30.8621C206.161 31.1608 205.555 31.3101 204.799 31.3101Z" fill="#222222"/>
</g>
<g clip-path="url(#clip4_21_1252)">
<rect x="240" width="50" height="50" fill="white"/>
<path d="M260.257 31.1001V28.9441H262.413V31.1001H260.257ZM263.675 31.1001V28.9441H265.831V31.1001H263.675ZM267.093 31.1001V28.9441H269.249V31.1001H267.093Z" fill="#222222"/>
</g>
<g clip-path="url(#clip5_21_1252)">
<rect x="300" width="50" height="50" fill="white"/>
<path d="M320.033 31.1001V22.0701C319.93 22.1261 319.814 22.1821 319.683 22.2381C319.552 22.2941 319.412 22.3548 319.263 22.4201C319.123 22.4761 318.983 22.5321 318.843 22.5881C318.712 22.6441 318.591 22.7001 318.479 22.7561V21.0201C318.582 20.9641 318.726 20.8894 318.913 20.7961C319.1 20.6934 319.3 20.5814 319.515 20.4601C319.73 20.3388 319.93 20.2174 320.117 20.0961C320.304 19.9654 320.444 19.8534 320.537 19.7601H322.371V31.1001H320.033ZM327.462 31.3101C326.781 31.3101 326.212 31.1748 325.754 30.9041C325.297 30.6241 324.952 30.2414 324.718 29.7561C324.485 29.2708 324.368 28.7061 324.368 28.0621V22.9241C324.368 22.2614 324.476 21.6828 324.69 21.1881C324.914 20.6841 325.255 20.2921 325.712 20.0121C326.17 19.7321 326.753 19.5921 327.462 19.5921C328.172 19.5921 328.75 19.7321 329.198 20.0121C329.656 20.2921 329.992 20.6841 330.206 21.1881C330.43 21.6828 330.542 22.2614 330.542 22.9241V28.0621C330.542 28.6968 330.426 29.2614 330.192 29.7561C329.959 30.2414 329.614 30.6241 329.156 30.9041C328.699 31.1748 328.134 31.3101 327.462 31.3101ZM327.462 29.2241C327.686 29.2241 327.845 29.1541 327.938 29.0141C328.041 28.8648 328.102 28.6968 328.12 28.5101C328.148 28.3141 328.162 28.1461 328.162 28.0061V22.9801C328.162 22.8214 328.153 22.6441 328.134 22.4481C328.116 22.2428 328.055 22.0654 327.952 21.9161C327.859 21.7574 327.696 21.6781 327.462 21.6781C327.229 21.6781 327.061 21.7574 326.958 21.9161C326.865 22.0654 326.809 22.2428 326.79 22.4481C326.772 22.6441 326.762 22.8214 326.762 22.9801V28.0061C326.762 28.1461 326.776 28.3141 326.804 28.5101C326.832 28.6968 326.893 28.8648 326.986 29.0141C327.089 29.1541 327.248 29.2241 327.462 29.2241Z" fill="#222222"/>
</g>
<g clip-path="url(#clip6_21_1252)">
<rect x="120" width="50" height="50" fill="#BEAD8E"/>
<path d="M141.719 31.1001V29.4481L144.435 25.2761C144.64 24.9681 144.831 24.6694 145.009 24.3801C145.195 24.0908 145.345 23.7968 145.457 23.4981C145.578 23.1994 145.639 22.8868 145.639 22.5601C145.639 22.2334 145.573 21.9908 145.443 21.8321C145.312 21.6734 145.135 21.5941 144.911 21.5941C144.659 21.5941 144.463 21.6641 144.323 21.8041C144.183 21.9441 144.085 22.1308 144.029 22.3641C143.982 22.5974 143.959 22.8588 143.959 23.1481V23.7081H141.691V23.1061C141.691 22.4341 141.798 21.8368 142.013 21.3141C142.227 20.7821 142.568 20.3668 143.035 20.0681C143.501 19.7601 144.113 19.6061 144.869 19.6061C145.886 19.6061 146.651 19.8721 147.165 20.4041C147.687 20.9268 147.949 21.6594 147.949 22.6021C147.949 23.0594 147.874 23.4841 147.725 23.8761C147.585 24.2681 147.393 24.6508 147.151 25.0241C146.917 25.3881 146.665 25.7708 146.395 26.1721L144.323 29.2661H147.641V31.1001H141.719Z" fill="white"/>
</g>
<defs>
<clipPath id="clip0_21_1252">
<rect width="50" height="50" fill="white" transform="translate(60)"/>
</clipPath>
<clipPath id="clip1_21_1252">
<rect width="50" height="50" fill="white"/>
</clipPath>
<clipPath id="clip2_21_1252">
<rect width="50" height="50" fill="white" transform="translate(360)"/>
</clipPath>
<clipPath id="clip3_21_1252">
<rect width="50" height="50" fill="white" transform="translate(180)"/>
</clipPath>
<clipPath id="clip4_21_1252">
<rect width="50" height="50" fill="white" transform="translate(240)"/>
</clipPath>
<clipPath id="clip5_21_1252">
<rect width="50" height="50" fill="white" transform="translate(300)"/>
</clipPath>
<clipPath id="clip6_21_1252">
<rect width="50" height="50" fill="white" transform="translate(120)"/>
</clipPath>
</defs>
</svg>
